<?xml version="1.0" encoding="UTF-8"?> <!-- Generator: Adobe Illustrator 24.0.0, SVG Export Plug-In . SVG Version: 6.00 Build 0) --> <svg xmlns="http://www.w3.org/2000/svg" xmlns:xlink="http://www.w3.org/1999/xlink" version="1.1" id="Layer_1" x="0px" y="0px" viewBox="0 0 100 46.6" style="enable-background:new 0 0 100 46.6;" xml:space="preserve"> <style type="text/css"> .st0{fill:#72727F;} </style> <path class="st0" d="M99.2,20.4c-0.3,0-0.5,0.1-0.7,0.4c-1.3,2.2-3.4,4.2-5.6,6.1c-0.1-2.5-0.5-8.4-1.5-9.8c-0.4-0.6-1-0.8-1.6-0.8 c-1.1,0-2.2,0.9-2.3,1.8c0,1.4-2.8,8.9-4.8,10.7c-0.1-0.4-0.1-0.7-0.1-1.1c0-2,0.4-4,0.8-6c0.3-1.4,0.5-2.7,0.7-3.9 c0-0.9-0.6-1.5-1.8-1.7l-0.8-0.1c-1.1,0-1.9,0.5-2.1,1.2c-0.2,0.8-0.5,2.4-0.7,4.1c-4.1,11.7-6.5,13.7-7.7,13.8c0,0,0-0.1,0-0.2 c0-1,0.6-3.4,1.3-6c0.9-3.2,1.8-6.9,1.8-8.9c0-2.4-1.8-2.7-3.6-3c-0.1,0-0.2,0-0.3,0c0.9-1.8,1.2-3.8,1.2-5.1c0-2.2-0.8-3.3-2.5-3.3 c-2.8,0-3.5,3.9-3.5,6.2c0,2.4,0.6,4,1.9,4.7c-1.1,2.8-4.6,10.4-8.3,10.4c-1.2,0-1.7-1.2-1.7-3.8c0-1,0-1.9,0.1-2.4 c2-0.3,4.3-3.4,4.3-5.1c-0.1-1.5-1.5-2.3-2.8-2.5h-0.4c-2.4,0-4.2,2.2-5,4.8c-1.1,1.2-3,2.6-4.7,2.7c0.6-2.2,1.6-6.8,1.6-10.7 c0-5.4-2.1-6.5-4-6.5c-3,0-4.8,2.7-4.8,7.1c0,4.4,1.8,9.7,5.2,11.3c-1.8,6.1-4.1,10.2-5.8,10.2c-0.3,0-1-1.4-1-7.4 c0-3.8,0.3-7.7,0.4-8.5v-0.3c0-0.9-0.7-1.5-1.7-1.5c-0.4,0-0.7,0.1-1.1,0.2c-1,0.3-2.2,1.1-2.2,2.2c0,0,0,0.6,0,1.6 c-1.3,5.1-6.2,20.6-8.1,20.6c-1.4,0-2-2.9-2-8.5c0-3.8,0.4-9,1.1-15.4c1-0.2,2-0.3,2.8-0.3c1.2,0,2,0.3,2.3,0.9 c0.2,0.3,0.5,0.5,0.7,0.5l0.1,0c0.1,0,0.1,0,0.2-0.1c0.3-0.1,0.7-0.2,0.7-0.8l0-0.1c-0.3-1.3-1.6-1.9-3.9-1.9 c-0.8,0-1.7,0.1-2.8,0.3c0.1-1.2,0.2-2.4,0.4-3.5c0.3-2.7,0.6-5.2,0.6-7.2c0-3.3-0.5-5.3-3.3-5.5C19.1,0,14,11.5,10.6,21.2 c-2.1,0.6-4.4,1.2-6.1,1.2c-1.5,0-2.5-0.4-2.8-1.2c-0.1-0.3-0.4-0.6-0.8-0.6l-0.1,0C0.3,20.8,0,21,0,21.6l0,0.1 c0.3,1.5,1.7,2.3,4,2.3c1.5,0,3.4-0.3,6-1.1c-2.1,6.2-3.6,12-4.3,14.9l0,0.2c0,0.4,0.4,0.7,0.8,0.7c0.4,0,0.7-0.2,0.8-0.6 C8,35,9.6,29,11.9,22.4c1.5-0.5,3.1-1,4.7-1.5c1.9-0.6,3.9-1.3,5.7-1.8c0,0.2-0.1,0.5-0.1,0.8c-0.3,2.4-0.8,6.9-0.8,11.3 c0,8.3,1.9,12.5,5.6,12.5c0,0,0,0,0,0l0.7-0.1c3-0.4,6.7-11.8,8.6-18.4c0.5,4.7,1.8,10.6,4.9,11.2l0.3,0c2.8,0,5.6-5.8,7.2-11.3 l0.4,0c1.6,0,3.2-0.9,4.3-1.7c0,0.2,0,0.5,0,0.8c0,3.6,1.9,7.3,6,7.3c3.2,0,6.4-3.9,9.6-11.5c0.9,0.1,1,0.2,1.1,0.8 c0,0.8-0.3,2.6-0.7,4.6c-0.5,2.7-1,5.8-1,7.8c0.1,1.8,0.4,3.5,2.5,3.5h0.3c2.8-0.1,5.5-5.4,7.6-10.6c0.3,3.2,1.4,4.8,3.4,4.8 c0,0,0,0,0,0c2.5-0.1,5-5.7,6.1-8.9c0.3,2.4,0.4,5.4,0.4,8.7c-5,4-7.4,7.7-7.4,11.4c0,2.6,1.9,4.6,4.5,4.6c0.4,0,0.8,0,1.2-0.1 c5.5-1.4,6-13.5,6-17.4c2.6-2.1,5.4-4.6,6.9-7.4c0.1-0.2,0.1-0.4,0.1-0.4C100,20.8,99.7,20.5,99.2,20.4z M88.6,32.5v2.4 c0,2.3,0,9.1-2.4,10L85.7,45c-1.8,0-2.9-1.1-2.9-3.1C82.8,38.4,85.8,34.9,88.6,32.5z M70.1,11.9c0,1.4-0.5,3.5-1.3,4.8 c-0.8-0.3-1.1-1.6-1.1-2.9c0-1.8,0.6-3.7,1.5-3.7C69.8,10.1,70.1,10.7,70.1,11.9z M58,21.9c0.5-2.5,1.3-4.1,1.8-4.2 c0.3,0.1,0.6,0.3,0.6,0.7C60.4,19.6,59,21.3,58,21.9z M49,12.4c0,3.5-0.9,8.3-1.5,10.7c-2-1.3-3.3-5.8-3.3-9.5 c0-2.8,0.7-5.8,2.7-5.9h0.1C48.4,7.7,49,9.2,49,12.4z M23.9,2.6c0,2.3-0.6,7.3-1.1,11c-0.2,1.6-0.4,2.9-0.4,3.7 c-1.9,0.6-4,1.3-6,1.9c-1.3,0.4-2.7,0.9-3.9,1.3c1.9-5.5,7-18,11.4-18.8C23.9,1.9,23.9,2.2,23.9,2.6z"></path> </svg> 